<svg xmlns="http://www.w3.org/2000/svg" viewBox="0 0 980 300" role="img" aria-labelledby="t d"><title id="t">flux OS</title><desc id="d">GESTÃO INTELIGENTE DE OBRAS E PROJETOS</desc><defs><linearGradient id="os" x1="0" y1="0" x2="1" y2="1"><stop stop-color="#3448ff"/><stop offset="1" stop-color="#5a48ff"/></linearGradient></defs><g fill="#07142f"><path d="M54 221V103c0-55 31-83 79-83 25 0 47 7 64 19l-22 36c-10-7-21-11-34-11-23 0-35 14-35 42v18h69v43h-69v54H54Z"/><path d="M195 55h54v119c0 17 8 25 23 25 8 0 16-2 24-7l10 38c-14 8-30 12-48 12-42 0-63-22-63-66V55Z"/><path d="M314 119h54v65c0 13 8 20 20 20 17 0 30-10 40-30v-55h54v111h-52v-19c-16 17-35 25-58 25-38 0-58-21-58-62v-55Z"/><path d="M496 119h61l28 34 28-34h60l-57 55 61 56h-62l-31-35-30 35h-61l61-57-58-54Z"/><path d="M365 239c73 24 153 10 213-46" fill="none" stroke="#07142f" stroke-width="9" stroke-linecap="round"/></g><g fill="url(#os)"><path d="M700 174c0-39 29-60 72-60 44 0 72 21 72 60s-28 61-72 61c-43 0-72-22-72-61Zm54 0c0 18 6 27 18 27 13 0 19-9 19-27 0-17-6-26-19-26-12 0-18 9-18 26Z"/><path d="M851 200c18 6 34 9 49 9 13 0 19-3 19-8 0-5-5-8-23-11-31-7-46-18-46-38 0-26 22-40 60-40 19 0 38 4 54 10l-14 34c-14-5-27-8-39-8-10 0-15 3-15 7 0 4 5 7 21 10 34 7 49 18 49 39 0 28-24 43-64 43-23 0-44-4-63-12l12-35Z"/></g><text x="490" y="282" text-anchor="middle" fill="#07142f" font-family="Arial,Helvetica,sans-serif" font-size="19" font-weight="500" letter-spacing="9">GESTÃO INTELIGENTE DE OBRAS E PROJETOS</text></svg>